<svg width="71" height="77" viewBox="0 0 71 77" fill="none" xmlns="http://www.w3.org/2000/svg">
<path d="M7.88547 76.7704C4.58124 76.7704 2.23264 75.1652 0.839681 71.9549C-0.553278 68.7445 -0.213137 65.7634 1.86011 63.0117L23.4348 34.4358V9.03501H19.5475C18.446 9.03501 17.5228 8.6293 16.7777 7.81789C16.0327 7.00648 15.6601 6.00103 15.6601 4.80155C15.6601 3.60207 16.0327 2.59662 16.7777 1.78521C17.5228 0.973792 18.446 0.568085 19.5475 0.568085H50.6461C51.7475 0.568085 52.6707 0.973792 53.4158 1.78521C54.1609 2.59662 54.5334 3.60207 54.5334 4.80155C54.5334 6.00103 54.1609 7.00648 53.4158 7.81789C52.6707 8.6293 51.7475 9.03501 50.6461 9.03501H46.7588V34.4358L68.3334 63.0117C70.4067 65.7634 70.7468 68.7445 69.3539 71.9549C67.9609 75.1652 65.6123 76.7704 62.3081 76.7704H7.88547ZM15.6601 64.07H54.5334L41.3165 47.1362H28.877L15.6601 64.07ZM7.88547 68.3035H62.3081L38.9841 37.3992V9.03501H31.2094V37.3992L7.88547 68.3035Z" fill="url(#paint0_linear_5_13)"/>
<defs>
<linearGradient id="paint0_linear_5_13" x1="35.0968" y1="0.568085" x2="35.0968" y2="76.7704" gradientUnits="userSpaceOnUse">
<stop offset="0.126" stop-color="white"/>
<stop offset="1" stop-color="#00069C"/>
</linearGradient>
</defs>
</svg>
